<svg width="40" height="40" viewBox="0 0 40 40" fill="none" xmlns="http://www.w3.org/2000/svg">
<rect x="0.5" y="0.5" width="39" height="39" rx="19.5" stroke="#DCDCDC"/>
<path d="M24.9989 19.0002H17.4089L20.7089 15.7102C20.8972 15.5219 21.003 15.2665 21.003 15.0002C21.003 14.7339 20.8972 14.4785 20.7089 14.2902C20.5206 14.1019 20.2652 13.9961 19.9989 13.9961C19.7326 13.9961 19.4772 14.1019 19.2889 14.2902L14.2889 19.2902C14.1979 19.3853 14.1265 19.4974 14.0789 19.6202C13.9789 19.8636 13.9789 20.1367 14.0789 20.3802C14.1265 20.5029 14.1979 20.6151 14.2889 20.7102L19.2889 25.7102C19.3819 25.8039 19.4925 25.8783 19.6143 25.9291C19.7362 25.9798 19.8669 26.006 19.9989 26.006C20.1309 26.006 20.2616 25.9798 20.3835 25.9291C20.5054 25.8783 20.616 25.8039 20.7089 25.7102C20.8026 25.6172 20.877 25.5066 20.9278 25.3848C20.9786 25.2629 21.0047 25.1322 21.0047 25.0002C21.0047 24.8682 20.9786 24.7375 20.9278 24.6156C20.877 24.4937 20.8026 24.3831 20.7089 24.2902L17.4089 21.0002H24.9989C25.2641 21.0002 25.5185 20.8948 25.706 20.7073C25.8936 20.5198 25.9989 20.2654 25.9989 20.0002C25.9989 19.735 25.8936 19.4806 25.706 19.2931C25.5185 19.1055 25.2641 19.0002 24.9989 19.0002Z" fill="black"/>
</svg>
